[ConversionWorker] Logging FFmpeg output to: ffmpeg_logs\ffmpeg_conversion_高冷13_wav_20250525_173954.log\n[ConversionWorker] Getting duration with command: ffprobe -v error -show_entries format=duration -of default=noprint_wrappers=1:nokey=1 Z:\Story\高冷\高冷13.wav\n[ConversionWorker] Duration for 高冷13.wav: 3720613 ms\n[ConversionWorker] Starting FFmpeg for 高冷13.wav: ffmpeg -i Z:\Story\高冷\高冷13.wav -b:a 128k -vn -y -loglevel error -stats -progress pipe:1 Z:\Story\高冷\高冷13.mp3\n[ConversionWorker] FFmpeg process started. PID: 23368\n[STDOUT RAW] bitrate= 123.5kbits/s\n[STDOUT RAW] total_size=74156\n[STDOUT RAW] out_time_us=4801958\n[STDOUT RAW] out_time_ms=4801958\n[STDOUT RAW] out_time=00:00:04.801958\n[STDOUT RAW] dup_frames=0\n[STDOUT RAW] drop_frames=0\n[STDOUT RAW] speed=9.24x\n[STDOUT RAW] progress=continue\n[STDERR RAW] size=      72KiB time=00:00:04.80 bitrate= 123.5kbits/s speed=9.24x\n[STDOUT RAW] bitrate= 125.8kbits/s\n[STDOUT RAW] total_size=150572\n[STDOUT RAW] out_time_us=9577958\n[STDOUT RAW] out_time_ms=9577958\n[STDOUT RAW] out_time=00:00:09.577958\n[STDOUT RAW] dup_frames=0\n[STDOUT RAW] drop_frames=0\n[STDOUT RAW] speed=9.31x\n[STDOUT RAW] progress=continue\n[STDERR RAW] size=     147KiB time=00:00:09.57 bitrate= 125.8kbits/s speed=9.31x\n[STDOUT RAW] bitrate= 126.4kbits/s\n[STDOUT RAW] total_size=215084\n[STDOUT RAW] out_time_us=13609958\n[STDOUT RAW] out_time_ms=13609958\n[STDOUT RAW] out_time=00:00:13.609958\n[STDOUT RAW] dup_frames=0\n[STDOUT RAW] drop_frames=0\n[STDOUT RAW] speed=8.84x\n[STDOUT RAW] progress=continue\n[STDERR RAW] size=     210KiB time=00:00:13.60 bitrate= 126.4kbits/s speed=8.84x\n[STDOUT RAW] bitrate= 122.5kbits/s\n[STDOUT RAW] total_size=786432\n[STDOUT RAW] out_time_us=51361958\n[STDOUT RAW] out_time_ms=51361958\n[STDOUT RAW] out_time=00:00:51.361958\n[STDOUT RAW] dup_frames=0\n[STDOUT RAW] drop_frames=0\n[STDOUT RAW] speed=24.8x\n[STDOUT RAW] progress=continue\n[STDERR RAW] size=     768KiB time=00:00:51.36 bitrate= 122.5kbits/s speed=24.8x\n[STDOUT RAW] bitrate= 122.2kbits/s\n[STDOUT RAW] total_size=2621440\n[STDOUT RAW] out_time_us=171673958\n[STDOUT RAW] out_time_ms=171673958\n[STDOUT RAW] out_time=00:02:51.673958\n[STDOUT RAW] dup_frames=0\n[STDOUT RAW] drop_frames=0\n[STDOUT RAW] speed=66.5x\n[STDOUT RAW] progress=continue\n[STDERR RAW] size=    2560KiB time=00:02:51.67 bitrate= 122.2kbits/s speed=66.5x\n[STDOUT RAW] bitrate= 125.2kbits/s\n[STDOUT RAW] total_size=4456448\n[STDOUT RAW] out_time_us=284857958\n[STDOUT RAW] out_time_ms=284857958\n[STDOUT RAW] out_time=00:04:44.857958\n[STDOUT RAW] dup_frames=0\n[STDOUT RAW] drop_frames=0\n[STDOUT RAW] speed=  92x\n[STDOUT RAW] progress=continue\n[STDERR RAW] size=    4352KiB time=00:04:44.85 bitrate= 125.2kbits/s speed=  92x\n[STDOUT RAW] bitrate= 122.6kbits/s\n[STDOUT RAW] total_size=6029312\n[STDOUT RAW] out_time_us=393337958\n[STDOUT RAW] out_time_ms=393337958\n[STDOUT RAW] out_time=00:06:33.337958\n[STDOUT RAW] dup_frames=0\n[STDOUT RAW] drop_frames=0\n[STDOUT RAW] speed= 109x\n[STDOUT RAW] progress=continue\n[STDERR RAW] size=    5888KiB time=00:06:33.33 bitrate= 122.6kbits/s speed= 109x\n[STDOUT RAW] bitrate= 125.8kbits/s\n[STDOUT RAW] total_size=7864320\n[STDOUT RAW] out_time_us=499921958\n[STDOUT RAW] out_time_ms=499921958\n[STDOUT RAW] out_time=00:08:19.921958\n[STDOUT RAW] dup_frames=0\n[STDOUT RAW] drop_frames=0\n[STDOUT RAW] speed= 121x\n[STDOUT RAW] progress=continue\n[STDERR RAW] size=    7680KiB time=00:08:19.92 bitrate= 125.8kbits/s speed= 121x\n[STDOUT RAW] bitrate= 124.5kbits/s\n[STDOUT RAW] total_size=9437184\n[STDOUT RAW] out_time_us=606337958\n[STDOUT RAW] out_time_ms=606337958\n[STDOUT RAW] out_time=00:10:06.337958\n[STDOUT RAW] dup_frames=0\n[STDOUT RAW] drop_frames=0\n[STDOUT RAW] speed= 131x\n[STDOUT RAW] progress=continue\n[STDERR RAW] size=    9216KiB time=00:10:06.33 bitrate= 124.5kbits/s speed= 131x\n[STDOUT RAW] bitrate= 127.2kbits/s\n[STDOUT RAW] total_size=11272192\n[STDOUT RAW] out_time_us=709009958\n[STDOUT RAW] out_time_ms=709009958\n[STDOUT RAW] out_time=00:11:49.009958\n[STDOUT RAW] dup_frames=0\n[STDOUT RAW] drop_frames=0\n[STDOUT RAW] speed= 138x\n[STDOUT RAW] progress=continue\n[STDERR RAW] size=   11008KiB time=00:11:49.00 bitrate= 127.2kbits/s speed= 138x\n[STDOUT RAW] bitrate= 127.8kbits/s\n[STDOUT RAW] total_size=12845056\n[STDOUT RAW] out_time_us=804289958\n[STDOUT RAW] out_time_ms=804289958\n[STDOUT RAW] out_time=00:13:24.289958\n[STDOUT RAW] dup_frames=0\n[STDOUT RAW] drop_frames=0\n[STDOUT RAW] speed= 142x\n[STDOUT RAW] progress=continue\n[STDERR RAW] size=   12544KiB time=00:13:24.28 bitrate= 127.8kbits/s speed= 142x\n[STDOUT RAW] bitrate= 126.6kbits/s\n[STDOUT RAW] total_size=14417920\n[STDOUT RAW] out_time_us=911065958\n[STDOUT RAW] out_time_ms=911065958\n[STDOUT RAW] out_time=00:15:11.065958\n[STDOUT RAW] dup_frames=0\n[STDOUT RAW] drop_frames=0\n[STDOUT RAW] speed= 147x\n[STDOUT RAW] progress=continue\n[STDERR RAW] size=   14080KiB time=00:15:11.06 bitrate= 126.6kbits/s speed= 147x\n[STDOUT RAW] bitrate= 126.1kbits/s\n[STDOUT RAW] total_size=15990784\n[STDOUT RAW] out_time_us=1014217958\n[STDOUT RAW] out_time_ms=1014217958\n[STDOUT RAW] out_time=00:16:54.217958\n[STDOUT RAW] dup_frames=0\n[STDOUT RAW] drop_frames=0\n[STDOUT RAW] speed= 151x\n[STDOUT RAW] progress=continue\n[STDERR RAW] size=   15616KiB time=00:16:54.21 bitrate= 126.1kbits/s speed= 151x\n[STDOUT RAW] bitrate= 127.3kbits/s\n[STDOUT RAW] total_size=17825792\n[STDOUT RAW] out_time_us=1119961958\n[STDOUT RAW] out_time_ms=1119961958\n[STDOUT RAW] out_time=00:18:39.961958\n[STDOUT RAW] dup_frames=0\n[STDOUT RAW] drop_frames=0\n[STDOUT RAW] speed= 155x\n[STDOUT RAW] progress=continue\n[STDERR RAW] size=   17408KiB time=00:18:39.96 bitrate= 127.3kbits/s speed= 155x\n[STDOUT RAW] bitrate= 126.3kbits/s\n[STDOUT RAW] total_size=19398656\n[STDOUT RAW] out_time_us=1228921958\n[STDOUT RAW] out_time_ms=1228921958\n[STDOUT RAW] out_time=00:20:28.921958\n[STDOUT RAW] dup_frames=0\n[STDOUT RAW] drop_frames=0\n[STDOUT RAW] speed= 159x\n[STDOUT RAW] progress=continue\n[STDERR RAW] size=   18944KiB time=00:20:28.92 bitrate= 126.3kbits/s speed= 159x\n[STDOUT RAW] bitrate= 127.4kbits/s\n[STDOUT RAW] total_size=21233664\n[STDOUT RAW] out_time_us=1333657958\n[STDOUT RAW] out_time_ms=1333657958\n[STDOUT RAW] out_time=00:22:13.657958\n[STDOUT RAW] dup_frames=0\n[STDOUT RAW] drop_frames=0\n[STDOUT RAW] speed= 161x\n[STDOUT RAW] progress=continue\n[STDERR RAW] size=   20736KiB time=00:22:13.65 bitrate= 127.4kbits/s speed= 161x\n[STDOUT RAW] bitrate= 126.5kbits/s\n[STDOUT RAW] total_size=22806528\n[STDOUT RAW] out_time_us=1441921958\n[STDOUT RAW] out_time_ms=1441921958\n[STDOUT RAW] out_time=00:24:01.921958\n[STDOUT RAW] dup_frames=0\n[STDOUT RAW] drop_frames=0\n[STDOUT RAW] speed= 164x\n[STDOUT RAW] progress=continue\n[STDERR RAW] size=   22272KiB time=00:24:01.92 bitrate= 126.5kbits/s speed= 164x\n[STDOUT RAW] bitrate= 127.1kbits/s\n[STDOUT RAW] total_size=24641536\n[STDOUT RAW] out_time_us=1550833958\n[STDOUT RAW] out_time_ms=1550833958\n[STDOUT RAW] out_time=00:25:50.833958\n[STDOUT RAW] dup_frames=0\n[STDOUT RAW] drop_frames=0\n[STDOUT RAW] speed= 167x\n[STDOUT RAW] progress=continue\n[STDERR RAW] size=   24064KiB time=00:25:50.83 bitrate= 127.1kbits/s speed= 167x\n[STDOUT RAW] bitrate= 127.4kbits/s\n[STDOUT RAW] total_size=26214400\n[STDOUT RAW] out_time_us=1646641958\n[STDOUT RAW] out_time_ms=1646641958\n[STDOUT RAW] out_time=00:27:26.641958\n[STDOUT RAW] dup_frames=0\n[STDOUT RAW] drop_frames=0\n[STDOUT RAW] speed= 168x\n[STDOUT RAW] progress=continue\n[STDERR RAW] size=   25600KiB time=00:27:26.64 bitrate= 127.4kbits/s speed= 168x\n[STDOUT RAW] bitrate= 127.1kbits/s\n[STDOUT RAW] total_size=27787264\n[STDOUT RAW] out_time_us=1748593958\n[STDOUT RAW] out_time_ms=1748593958\n[STDOUT RAW] out_time=00:29:08.593958\n[STDOUT RAW] dup_frames=0\n[STDOUT RAW] drop_frames=0\n[STDOUT RAW] speed= 169x\n[STDOUT RAW] progress=continue\n[STDERR RAW] size=   27136KiB time=00:29:08.59 bitrate= 127.1kbits/s speed= 169x\n[STDOUT RAW] bitrate= 127.1kbits/s\n[STDOUT RAW] total_size=29360128\n[STDOUT RAW] out_time_us=1848265958\n[STDOUT RAW] out_time_ms=1848265958\n[STDOUT RAW] out_time=00:30:48.265958\n[STDOUT RAW] dup_frames=0\n[STDOUT RAW] drop_frames=0\n[STDOUT RAW] speed= 170x\n[STDOUT RAW] progress=continue\n[STDERR RAW] size=   28672KiB time=00:30:48.26 bitrate= 127.1kbits/s speed= 170x\n[STDOUT RAW] bitrate= 126.9kbits/s\n[STDOUT RAW] total_size=30932992\n[STDOUT RAW] out_time_us=1949833958\n[STDOUT RAW] out_time_ms=1949833958\n[STDOUT RAW] out_time=00:32:29.833958\n[STDOUT RAW] dup_frames=0\n[STDOUT RAW] drop_frames=0\n[STDOUT RAW] speed= 172x\n[STDOUT RAW] progress=continue\n[STDERR RAW] size=   30208KiB time=00:32:29.83 bitrate= 126.9kbits/s speed= 172x\n[STDOUT RAW] bitrate= 127.4kbits/s\n[STDOUT RAW] total_size=32768000\n[STDOUT RAW] out_time_us=2057041958\n[STDOUT RAW] out_time_ms=2057041958\n[STDOUT RAW] out_time=00:34:17.041958\n[STDOUT RAW] dup_frames=0\n[STDOUT RAW] drop_frames=0\n[STDOUT RAW] speed= 173x\n[STDOUT RAW] progress=continue\n[STDERR RAW] size=   32000KiB time=00:34:17.04 bitrate= 127.4kbits/s speed= 173x\n[STDOUT RAW] bitrate= 127.8kbits/s\n[STDOUT RAW] total_size=34603008\n[STDOUT RAW] out_time_us=2166193958\n[STDOUT RAW] out_time_ms=2166193958\n[STDOUT RAW] out_time=00:36:06.193958\n[STDOUT RAW] dup_frames=0\n[STDOUT RAW] drop_frames=0\n[STDOUT RAW] speed= 175x\n[STDOUT RAW] progress=continue\n[STDERR RAW] size=   33792KiB time=00:36:06.19 bitrate= 127.8kbits/s speed= 175x\n[STDOUT RAW] bitrate= 127.5kbits/s\n[STDOUT RAW] total_size=36175872\n[STDOUT RAW] out_time_us=2269921958\n[STDOUT RAW] out_time_ms=2269921958\n[STDOUT RAW] out_time=00:37:49.921958\n[STDOUT RAW] dup_frames=0\n[STDOUT RAW] drop_frames=0\n[STDOUT RAW] speed= 176x\n[STDOUT RAW] progress=continue\n[STDERR RAW] size=   35328KiB time=00:37:49.92 bitrate= 127.5kbits/s speed= 176x\n[STDOUT RAW] bitrate= 127.4kbits/s\n[STDOUT RAW] total_size=37748736\n[STDOUT RAW] out_time_us=2371153958\n[STDOUT RAW] out_time_ms=2371153958\n[STDOUT RAW] out_time=00:39:31.153958\n[STDOUT RAW] dup_frames=0\n[STDOUT RAW] drop_frames=0\n[STDOUT RAW] speed= 177x\n[STDOUT RAW] progress=continue\n[STDERR RAW] size=   36864KiB time=00:39:31.15 bitrate= 127.4kbits/s speed= 177x\n[STDOUT RAW] bitrate= 127.6kbits/s\n[STDOUT RAW] total_size=39321600\n[STDOUT RAW] out_time_us=2466265958\n[STDOUT RAW] out_time_ms=2466265958\n[STDOUT RAW] out_time=00:41:06.265958\n[STDOUT RAW] dup_frames=0\n[STDOUT RAW] drop_frames=0\n[STDOUT RAW] speed= 177x\n[STDOUT RAW] progress=continue\n[STDERR RAW] size=   38400KiB time=00:41:06.26 bitrate= 127.6kbits/s speed= 177x\n[STDOUT RAW] bitrate= 127.4kbits/s\n[STDOUT RAW] total_size=40894464\n[STDOUT RAW] out_time_us=2567761958\n[STDOUT RAW] out_time_ms=2567761958\n[STDOUT RAW] out_time=00:42:47.761958\n[STDOUT RAW] dup_frames=0\n[STDOUT RAW] drop_frames=0\n[STDOUT RAW] speed= 178x\n[STDOUT RAW] progress=continue\n[STDERR RAW] size=   39936KiB time=00:42:47.76 bitrate= 127.4kbits/s speed= 178x\n[STDOUT RAW] bitrate= 127.9kbits/s\n[STDOUT RAW] total_size=42729472\n[STDOUT RAW] out_time_us=2672233958\n[STDOUT RAW] out_time_ms=2672233958\n[STDOUT RAW] out_time=00:44:32.233958\n[STDOUT RAW] dup_frames=0\n[STDOUT RAW] drop_frames=0\n[STDOUT RAW] speed= 178x\n[STDOUT RAW] progress=continue\n[STDERR RAW] size=   41728KiB time=00:44:32.23 bitrate= 127.9kbits/s speed= 178x\n[STDOUT RAW] bitrate= 127.6kbits/s\n[STDOUT RAW] total_size=44302336\n[STDOUT RAW] out_time_us=2776873958\n[STDOUT RAW] out_time_ms=2776873958\n[STDOUT RAW] out_time=00:46:16.873958\n[STDOUT RAW] dup_frames=0\n[STDOUT RAW] drop_frames=0\n[STDOUT RAW] speed= 179x\n[STDOUT RAW] progress=continue\n[STDERR RAW] size=   43264KiB time=00:46:16.87 bitrate= 127.6kbits/s speed= 179x\n[STDOUT RAW] bitrate= 127.4kbits/s\n[STDOUT RAW] total_size=45875200\n[STDOUT RAW] out_time_us=2880673958\n[STDOUT RAW] out_time_ms=2880673958\n[STDOUT RAW] out_time=00:48:00.673958\n[STDOUT RAW] dup_frames=0\n[STDOUT RAW] drop_frames=0\n[STDOUT RAW] speed= 180x\n[STDOUT RAW] progress=continue\n[STDERR RAW] size=   44800KiB time=00:48:00.67 bitrate= 127.4kbits/s speed= 180x\n[STDOUT RAW] bitrate= 127.8kbits/s\n[STDOUT RAW] total_size=47448064\n[STDOUT RAW] out_time_us=2970913958\n[STDOUT RAW] out_time_ms=2970913958\n[STDOUT RAW] out_time=00:49:30.913958\n[STDOUT RAW] dup_frames=0\n[STDOUT RAW] drop_frames=0\n[STDOUT RAW] speed= 180x\n[STDOUT RAW] progress=continue\n[STDERR RAW] size=   46336KiB time=00:49:30.91 bitrate= 127.8kbits/s speed= 180x\n[STDOUT RAW] bitrate= 127.3kbits/s\n[STDOUT RAW] total_size=49020928\n[STDOUT RAW] out_time_us=3080329958\n[STDOUT RAW] out_time_ms=3080329958\n[STDOUT RAW] out_time=00:51:20.329958\n[STDOUT RAW] dup_frames=0\n[STDOUT RAW] drop_frames=0\n[STDOUT RAW] speed= 181x\n[STDOUT RAW] progress=continue\n[STDERR RAW] size=   47872KiB time=00:51:20.32 bitrate= 127.3kbits/s speed= 181x\n[STDOUT RAW] bitrate= 127.9kbits/s\n[STDOUT RAW] total_size=50855936\n[STDOUT RAW] out_time_us=3181417958\n[STDOUT RAW] out_time_ms=3181417958\n[STDOUT RAW] out_time=00:53:01.417958\n[STDOUT RAW] dup_frames=0\n[STDOUT RAW] drop_frames=0\n[STDOUT RAW] speed= 181x\n[STDOUT RAW] progress=continue\n[STDERR RAW] size=   49664KiB time=00:53:01.41 bitrate= 127.9kbits/s speed= 181x\n[STDOUT RAW] bitrate= 127.8kbits/s\n[STDOUT RAW] total_size=52428800\n[STDOUT RAW] out_time_us=3281905958\n[STDOUT RAW] out_time_ms=3281905958\n[STDOUT RAW] out_time=00:54:41.905958\n[STDOUT RAW] dup_frames=0\n[STDOUT RAW] drop_frames=0\n[STDOUT RAW] speed= 182x\n[STDOUT RAW] progress=continue\n[STDERR RAW] size=   51200KiB time=00:54:41.90 bitrate= 127.8kbits/s speed= 182x\n[STDOUT RAW] bitrate= 127.7kbits/s\n[STDOUT RAW] total_size=54001664\n[STDOUT RAW] out_time_us=3383041958\n[STDOUT RAW] out_time_ms=3383041958\n[STDOUT RAW] out_time=00:56:23.041958\n[STDOUT RAW] dup_frames=0\n[STDOUT RAW] drop_frames=0\n[STDOUT RAW] speed= 182x\n[STDOUT RAW] progress=continue\n[STDERR RAW] size=   52736KiB time=00:56:23.04 bitrate= 127.7kbits/s speed= 182x\n[STDOUT RAW] bitrate= 127.6kbits/s\n[STDOUT RAW] total_size=55574528\n[STDOUT RAW] out_time_us=3484441958\n[STDOUT RAW] out_time_ms=3484441958\n[STDOUT RAW] out_time=00:58:04.441958\n[STDOUT RAW] dup_frames=0\n[STDOUT RAW] drop_frames=0\n[STDOUT RAW] speed= 182x\n[STDOUT RAW] progress=continue\n[STDERR RAW] size=   54272KiB time=00:58:04.44 bitrate= 127.6kbits/s speed= 182x\n[STDOUT RAW] bitrate= 127.4kbits/s\n[STDOUT RAW] total_size=57147392\n[STDOUT RAW] out_time_us=3588217958\n[STDOUT RAW] out_time_ms=3588217958\n[STDOUT RAW] out_time=00:59:48.217958\n[STDOUT RAW] dup_frames=0\n[STDOUT RAW] drop_frames=0\n[STDOUT RAW] speed= 183x\n[STDOUT RAW] progress=continue\n[STDERR RAW] size=   55808KiB time=00:59:48.21 bitrate= 127.4kbits/s speed= 183x\n[STDOUT RAW] bitrate= 128.0kbits/s\n[STDOUT RAW] total_size=58982400\n[STDOUT RAW] out_time_us=3687073958\n[STDOUT RAW] out_time_ms=3687073958\n[STDOUT RAW] out_time=01:01:27.073958\n[STDOUT RAW] dup_frames=0\n[STDOUT RAW] drop_frames=0\n[STDOUT RAW] speed= 183x\n[STDOUT RAW] progress=continue\n[STDERR RAW] size=   57600KiB time=01:01:27.07 bitrate= 128.0kbits/s speed= 183x\n[STDOUT RAW] bitrate= 128.0kbits/s\n[STDOUT RAW] total_size=59531180\n[STDOUT RAW] out_time_us=3720613333\n[STDOUT RAW] out_time_ms=3720613333\n[STDERR RAW] size=   58136KiB time=01:02:00.61 bitrate= 128.0kbits/s speed= 183x\n[STDOUT RAW] out_time=01:02:00.613333\n[STDOUT RAW] dup_frames=0\n[STDOUT RAW] drop_frames=0\n[STDOUT RAW] speed= 183x\n[STDOUT RAW] progress=end\n[ConversionWorker] STDERR pipe closed signal received.\n[ConversionWorker] Detected 'progress=end' for 高冷13.wav\n[ConversionWorker] STDOUT pipe closed signal received.\n[ConversionWorker] Process finished and both stream pipes closed. Exiting loop.\n[ConversionWorker] Waiting for reader threads to join...\n[ConversionWorker] FFmpeg process ended. Return code: 0\n[ConversionWorker] Closing FFmpeg log file.\n